<svg xmlns="http://www.w3.org/2000/svg" width="182.13" height="32" viewBox="0 0 182.13 32"><defs><style>.a{fill:#5e09d5;fill-rule:evenodd}</style></defs><path class="a" d="M109.717 18.768a4.265 4.265 0 007.1-1.777h5.034a9.2 9.2 0 01-15.62 5.266l-1.88 1.873v-7.138h7.138l-1.777 1.777zm3.016-12.211a9.177 9.177 0 016.5 2.692l1.863-1.869v7.138h-7.112l1.767-1.777a4.266 4.266 0 00-7.1 1.777h-5.034a9.2 9.2 0 019.116-7.961z"/><path d="M143.987 10.994h-3.031v-4.44h3.031V0h5.288v6.554h4.264v4.441h-4.264v6.579a3.837 3.837 0 00.142 1.082 1.739 1.739 0 00.493.815 1.971 1.971 0 001.376.476 2.735 2.735 0 00.952-.142 2.468 2.468 0 00.67-.352l1.48 4.583a10.3 10.3 0 01-1.974.671 9.979 9.979 0 01-2.255.247 5.888 5.888 0 01-4.407-1.654 5.782 5.782 0 01-1.3-2.144 8.311 8.311 0 01-.458-2.825V11zm-12.122 13.957a10.833 10.833 0 01-3.17-.423 8.776 8.776 0 01-2.379-1.11 6.973 6.973 0 01-1.675-1.584 7.74 7.74 0 01-1.022-1.814l4.759-2.009a3.569 3.569 0 001.374 1.746 3.932 3.932 0 002.113.546 3.33 3.33 0 001.639-.333.985.985 0 00.58-.862 1.036 1.036 0 00-.565-.934 6.571 6.571 0 00-1.8-.614l-2.36-.495a8.768 8.768 0 01-1.728-.562 6.536 6.536 0 01-1.621-1.023 5.071 5.071 0 01-1.2-1.5 4.182 4.182 0 01-.457-1.99 4.611 4.611 0 01.546-2.238 5.189 5.189 0 011.5-1.708 7.2 7.2 0 012.256-1.091 9.917 9.917 0 012.855-.391 10.56 10.56 0 014.621.931 6.1 6.1 0 012.922 3.12l-4.547 1.87a2.908 2.908 0 00-1.285-1.338 3.667 3.667 0 00-1.675-.423 2.969 2.969 0 00-1.479.319.908.908 0 00-.567.775.9.9 0 00.581.794 6.649 6.649 0 001.427.51l2.68.633a7.667 7.667 0 013.943 2.04 4.829 4.829 0 01.756 5.535 5.783 5.783 0 01-1.547 1.865 7.728 7.728 0 01-2.4 1.285 9.443 9.443 0 01-3.084.476zm-51.818-4.76a9.62 9.62 0 01-3.332 3.489 9.323 9.323 0 01-4.987 1.27 9.915 9.915 0 01-3.718-.686 9.041 9.041 0 01-2.978-1.922 8.719 8.719 0 01-1.975-2.907 9.392 9.392 0 01-.7-3.683 9.138 9.138 0 012.661-6.468 9.5 9.5 0 012.921-1.993 8.923 8.923 0 013.648-.737 9.523 9.523 0 013.789.7 7.667 7.667 0 012.729 1.927 8.19 8.19 0 011.656 2.855 10.675 10.675 0 01.565 3.508 8.023 8.023 0 01-.07 1.056 3.062 3.062 0 00-.035.458H67.5a3.8 3.8 0 001.587 2.465 4.83 4.83 0 002.678.775 4.4 4.4 0 002.451-.633 4.719 4.719 0 001.532-1.623zm-4.689-6.73a2.981 2.981 0 00-.333-.915 3.137 3.137 0 00-.742-.9 4.007 4.007 0 00-1.162-.67 4.246 4.246 0 00-1.534-.262 4.047 4.047 0 00-3.841 2.746h7.611zM48.865 7.119H53.8v2.185h.352a6.14 6.14 0 012.007-1.937 5.352 5.352 0 012.89-.811 5.241 5.241 0 011.656.235 5.088 5.088 0 011.162.517l-1.374 4.71a4.568 4.568 0 00-.971-.386 5.1 5.1 0 00-1.322-.14 3.539 3.539 0 00-3.016 1.372 5.8 5.8 0 00-1.038 3.593v8.495h-5.284V7.119zm-3.241 13.072a9.608 9.608 0 01-3.332 3.489 9.323 9.323 0 01-4.987 1.27 9.9 9.9 0 01-3.717-.686 9.047 9.047 0 01-2.981-1.92 8.715 8.715 0 01-1.974-2.907 9.392 9.392 0 01-.7-3.683 9.138 9.138 0 012.661-6.468 9.514 9.514 0 012.923-1.995 8.923 8.923 0 013.646-.742 9.518 9.518 0 013.789.7 7.654 7.654 0 012.731 1.932 8.168 8.168 0 011.656 2.855 10.675 10.675 0 01.568 3.508c0 .188-.006.376-.018.561s-.031.352-.053.495a3.049 3.049 0 00-.034.458H33.078a3.8 3.8 0 001.586 2.465 4.83 4.83 0 002.678.775 4.392 4.392 0 002.451-.633 4.737 4.737 0 001.533-1.623zm-4.687-6.73a3.027 3.027 0 00-.335-.915 3.137 3.137 0 00-.742-.9 3.968 3.968 0 00-1.162-.67 4.241 4.241 0 00-1.533-.266 4.043 4.043 0 00-3.84 2.746h7.612zM8.529 10.927V0h9.022a10.364 10.364 0 013.576.6 8.641 8.641 0 012.837 1.675 7.55 7.55 0 011.869 2.589 7.637 7.637 0 01.671 3.223 8.832 8.832 0 01-.671 3.473 7.474 7.474 0 01-1.869 2.589 8.591 8.591 0 01-2.837 1.675 10.376 10.376 0 01-3.576.6h-3.526v-5.5zm9.2 0a3.5 3.5 0 002.574-.847 2.572 2.572 0 00.847-1.993 2.638 2.638 0 00-.847-2.023 3.5 3.5 0 00-2.574-.847h-3.7v5.711z" fill="#5e09d5"/><path d="M-.003 10.926h14.029v14.025h-5.5v-8.528H-.003zM169.656 0a12.474 12.474 0 11-12.474 12.474A12.476 12.476 0 01169.656 0zm-4.311 17.038a4.53 4.53 0 01-.772-.065 3.871 3.871 0 01-.708-.2 3.089 3.089 0 01-1.15-.772 3.344 3.344 0 01-.417-.562 3.691 3.691 0 01-.305-.667 4.24 4.24 0 01-.188-.769 5.767 5.767 0 01-.062-.862V7.916h2.27v5.347a2.271 2.271 0 00.09.655 1.607 1.607 0 00.26.512 1.048 1.048 0 00.4.322 1.438 1.438 0 00.576.107 1.421 1.421 0 00.574-.107 1.042 1.042 0 00.4-.322 1.607 1.607 0 00.26-.512 2.309 2.309 0 00.09-.659V7.913h2.27v5.228a5.225 5.225 0 01-.062.811 4.313 4.313 0 01-.185.747 3.7 3.7 0 01-.305.668 3.378 3.378 0 01-.414.568 3.336 3.336 0 01-1.144.812 3.416 3.416 0 01-.708.22 4.276 4.276 0 01-.775.07zm5.432-2.389l3.916-4.557h-3.777V7.916h6.6v2.138l-3.9 4.617h3.946v2.176h-6.837V14.7l.048-.059z" fill="#00d6c1" fill-rule="evenodd"/><path class="a" d="M87.873 23.905v8.1h-4.935V15.754a9.2 9.2 0 114.935 8.151zm4.265-12.414a4.264 4.264 0 11-4.264 4.264 4.264 4.264 0 014.264-4.264z"/></svg>