<svg xmlns="http://www.w3.org/2000/svg" width="20.216" height="24" viewBox="0 0 20.216 24"><path d="M19.792 18.701a13.048 13.048 0 01-1.29 2.32 11.787 11.787 0 01-1.662 2.009 3.224 3.224 0 01-2.136.941 5.354 5.354 0 01-1.974-.47 5.662 5.662 0 00-2.124-.47 5.854 5.854 0 00-2.185.47 5.878 5.878 0 01-1.891.5 3.036 3.036 0 01-2.185-.966 12.377 12.377 0 01-1.738-2.08 14.385 14.385 0 01-1.835-3.654A13.371 13.371 0 010 12.949a7.948 7.948 0 011.044-4.158A6.122 6.122 0 013.23 6.579a5.88 5.88 0 012.955-.834 6.958 6.958 0 012.286.532 7.348 7.348 0 001.813.533 10.848 10.848 0 002.01-.628 6.645 6.645 0 012.736-.481 5.8 5.8 0 014.545 2.393 5.056 5.056 0 00-2.681 4.593 5.067 5.067 0 001.66 3.814 5.467 5.467 0 001.662 1.09q-.2.58-.424 1.113zM15.161.48a5.12 5.12 0 01-1.313 3.358 4.472 4.472 0 01-3.718 1.834 3.737 3.737 0 01-.028-.455 5.26 5.26 0 011.392-3.394 5.362 5.362 0 011.7-1.274 5.056 5.056 0 011.942-.548 4.359 4.359 0 01.025.48z" fill="#312f35"/></svg>