<svg xmlns="http://www.w3.org/2000/svg" width="14" height="14" viewBox="0 0 14 14"><defs><style>.a{fill:#9e9da6}</style></defs><path class="a" d="M14 2.488v10.09c-.01.029-.022.058-.028.087a1.636 1.636 0 01-1.083 1.245c-.1.037-.207.06-.31.089H1.423a.9.9 0 00-.088-.028 1.587 1.587 0 01-1.1-.789 4.276 4.276 0 01-.229-.6V2.488a.243.243 0 00.021-.049 1.633 1.633 0 011.678-1.38h1.527v-.49a.547.547 0 111.093 0v.482h5.359v-.47a.548.548 0 111.094 0v.476h.16c.492 0 .984-.008 1.476 0a1.533 1.533 0 011.334.771 3.871 3.871 0 01.252.66zm-1.094 2.917H1.094v6.887a.557.557 0 00.619.614h10.579a.556.556 0 00.614-.619V5.405zM9.679 2.164H4.32v.5a.547.547 0 11-1.093 0v-.509c-.053 0-.093-.007-.133-.007H1.686a.546.546 0 00-.592.6v1.539h11.813V2.748a.546.546 0 00-.593-.6h-1.408c-.04 0-.079 0-.132.007v.523a.547.547 0 11-1.093 0c-.003-.167-.001-.335-.001-.51z"/><path class="a" d="M3.762 8.334h-.505a.555.555 0 01-.569-.557.545.545 0 01.571-.536h1.024a.547.547 0 01.576.545.555.555 0 01-.578.548h-.519zM6.999 7.24h.546a.541.541 0 01.539.526.523.523 0 01-.479.552 11.047 11.047 0 01-1.214 0 .522.522 0 01-.478-.552.541.541 0 01.539-.526c.183-.005.366 0 .547 0zm3.222 0h.546a.544.544 0 01.545.521.524.524 0 01-.474.557 10.582 10.582 0 01-1.227 0 .521.521 0 01-.47-.559.538.538 0 01.533-.517c.182-.006.365-.002.547-.002zm-6.454 3.807h-.533a.546.546 0 010-1.092q.539-.008 1.079 0a.547.547 0 11-.01 1.093c-.183.001-.36-.001-.536-.001zm3.233 0h-.533a.547.547 0 11.006-1.093h1.052a.547.547 0 11-.006 1.093c-.173.002-.346 0-.519 0zm3.219 0H9.7a.546.546 0 11-.007-1.092q.532-.005 1.065 0a.545.545 0 01.553.542.551.551 0 01-.56.55c-.177.002-.354 0-.532 0z"/></svg>