<svg xmlns="http://www.w3.org/2000/svg" width="14" height="14" viewBox="0 0 14 14"><defs><style>.a{fill:#9e9da6}</style></defs><path class="a" d="M14 9.926V1.942a.229.229 0 01-.021-.049A2.181 2.181 0 0011.743 0h-9.5A2.184 2.184 0 000 2.247v7.367a2.2 2.2 0 002.27 2.251q2.741-.006 5.481 0a.3.3 0 01.187.078c.474.466.948.933 1.412 1.41a1.939 1.939 0 00.985.645h.383c.029-.01.058-.022.088-.029a1.274 1.274 0 001.019-1.05 3.317 3.317 0 00.021-.558v-.489l.14-.016a2.2 2.2 0 001.946-1.642c.025-.095.046-.192.068-.288zM7 1.094h4.744a1.1 1.1 0 011.162 1.166v7.342a1.1 1.1 0 01-1.134 1.17 1.028 1.028 0 00-1 .912c-.031.307-.017.619-.019.928 0 .114 0 .221-.13.274s-.206-.016-.287-.1c-.541-.542-1.087-1.078-1.622-1.626a1.245 1.245 0 00-.95-.4c-1.827.007-3.655 0-5.482 0a1.1 1.1 0 01-1.189-1.181V2.265a1.1 1.1 0 011.176-1.18z"/><path class="a" d="M7.001 3.773H3.79a.547.547 0 100 1.093h6.409a.547.547 0 100-1.093h-3.2zm1.352 3.228H6.494a.542.542 0 00-.521.37.51.51 0 00.17.589.69.69 0 00.362.129c1.24.009 2.479.007 3.719 0a.546.546 0 100-1.091c-.622 0-1.247.003-1.871.003zm-4.041 0h-.287a.545.545 0 000 1.089c.2.009.4.009.6 0A.546.546 0 004.613 7h-.3z"/></svg>