<svg xmlns="http://www.w3.org/2000/svg" width="16" height="12" viewBox="0 0 14 9.844"><path d="M13.947 4.687A8.063 8.063 0 006.998 0C3.498 0 .975 2.741.051 4.687a.547.547 0 000 .469 8.063 8.063 0 006.947 4.688c3.5 0 6.023-2.741 6.947-4.687a.547.547 0 00.002-.47zM6.998 8.749a6.906 6.906 0 01-5.831-3.827 6.909 6.909 0 015.831-3.828 6.906 6.906 0 015.834 3.828 6.909 6.909 0 01-5.834 3.827zm0-6.563A2.734 2.734 0 109.732 4.92a2.737 2.737 0 00-2.734-2.733zm0 4.375A1.641 1.641 0 118.639 4.92a1.643 1.643 0 01-1.641 1.643z" fill="#9e9da6"/></svg>