<svg xmlns="http://www.w3.org/2000/svg" width="46.658" height="36" viewBox="0 0 46.658 36"><defs><linearGradient id="a" x1="-33.421" y1="44.39" x2="-33.509" y2="44.304" gradientUnits="objectBoundingBox"><stop offset="0" stop-color="#ffb301"/><stop offset="1" stop-color="#ffc533"/></linearGradient><linearGradient id="b" x1="-15.457" y1="33.289" x2="-15.457" y2="33.198" gradientUnits="objectBoundingBox"><stop offset="0" stop-color="#9fc7ff"/><stop offset="1" stop-color="#9bc1f5"/></linearGradient><radialGradient id="c" cx=".555" cy=".101" r=".582" gradientTransform="matrix(0 -1 -.719 0 14.709 27.89)" gradientUnits="objectBoundingBox"><stop offset="0" stop-color="#486da8" stop-opacity=".4"/><stop offset="1" stop-color="#486da8" stop-opacity="0"/></radialGradient></defs><g data-name="Group 48" transform="translate(-2 -2.109)"><circle data-name="Ellipse 1" cx="8.525" cy="8.525" r="8.525" transform="translate(23.313 10.402)" fill="url(#a)"/><path data-name="Path 101" d="M30.729 3.433l.554 3.148a1.6 1.6 0 11-3.148.554l-.554-3.148a1.6 1.6 0 113.148-.554zM42.01 7.186l-1.833 2.619a1.6 1.6 0 01-2.618-1.832l1.833-2.619a1.6 1.6 0 012.618 1.832zM20.098 8.755l2.619 1.833a1.6 1.6 0 01-1.833 2.619l-2.619-1.833a1.6 1.6 0 011.833-2.619zm22.7 15.891l2.619 1.833A1.6 1.6 0 0143.58 29.1l-2.621-1.835a1.6 1.6 0 011.835-2.62zm4.54-6.829l-3.148.554a1.6 1.6 0 11-.554-3.148l3.148-.554a1.6 1.6 0 11.55 3.148z" fill="#ffb300"/><path data-name="Path 102" d="M10.525 31.444a8.525 8.525 0 112.549-16.662 9.592 9.592 0 0118.651 4.28 6.395 6.395 0 112.244 12.383z" transform="translate(0 6.665)" fill="url(#b)"/><path data-name="Path 103" d="M12.656 14.2a9.591 9.591 0 0019.068 1.471 6.395 6.395 0 112.245 12.379H10.525a8.525 8.525 0 112.549-16.662 9.551 9.551 0 00-.418 2.812z" transform="translate(0 10.059)" fill="url(#c)"/></g></svg>