<svg xmlns="http://www.w3.org/2000/svg" width="14" height="14" viewBox="0 0 14 14"><defs><style>.a{fill:#9e9da6}</style></defs><path class="a" d="M13.469 4.273h-2.652V.531A.531.531 0 0010.285 0H.531A.531.531 0 000 .531v11.346A2.123 2.123 0 002.123 14h9.754A2.123 2.123 0 0014 11.877V4.8a.531.531 0 00-.531-.527zM2.123 12.939a1.061 1.061 0 01-1.061-1.062V1.061h8.693v10.816a2.1 2.1 0 00.039.381c.005.031.011.06.018.089a2.132 2.132 0 00.106.351c0 .005.005.01.007.015a2.1 2.1 0 00.106.224zm10.816-1.062a1.062 1.062 0 01-2.123 0V5.334h2.123z"/><path class="a" d="M6.46 2.758H4.383a.531.531 0 000 1.061H6.46a.531.531 0 100-1.061zm1.593 2.45H2.791a.531.531 0 100 1.062h5.262a.531.531 0 000-1.062zm0 2.45H2.791a.531.531 0 100 1.061h5.262a.531.531 0 000-1.061zm0 2.45H2.791a.531.531 0 100 1.061h5.262a.531.531 0 000-1.061z"/></svg>