<svg xmlns="http://www.w3.org/2000/svg" width="14" height="14" viewBox="0 0 14 14"><g data-name="Group 73" fill="#9e9da6"><path data-name="Path 166" d="M9.487 14H4.511c-.175-.027-.35-.051-.524-.08a4.857 4.857 0 01-3.848-3.629c-.06-.265-.093-.535-.139-.8V4.514c.046-.268.069-.542.14-.8A4.775 4.775 0 013.733.141c.253-.067.518-.092.777-.136h4.976c.206.032.415.054.619.1A4.846 4.846 0 0114 4.861Q14.008 7 14 9.14a5.3 5.3 0 01-.049.68 4.842 4.842 0 01-3.655 4.041c-.269.062-.541.093-.809.139zM1.094 7v2.105a3.977 3.977 0 00.036.572 3.753 3.753 0 003.742 3.228c1.417 0 2.834.006 4.251 0a3.938 3.938 0 00.866-.1 3.741 3.741 0 002.913-3.674q.006-2.132 0-4.265a3.853 3.853 0 00-.035-.531A3.753 3.753 0 009.15 1.094c-1.435-.006-2.87-.009-4.305 0a3.877 3.877 0 00-.983.134 3.733 3.733 0 00-2.769 3.648L1.094 7z"/><path data-name="Path 167" d="M6.452 5.389V3.817a.548.548 0 111.094 0v2.829a.287.287 0 00.1.225c.62.616 1.237 1.236 1.857 1.853a.568.568 0 01.2.487.547.547 0 01-.938.319c-.324-.32-.645-.643-.967-.965-.364-.364-.724-.732-1.094-1.09a.739.739 0 01-.244-.581c-.001-.502-.008-1.004-.008-1.505z"/></g></svg>