<svg xmlns="http://www.w3.org/2000/svg" width="20" height="19.956" viewBox="0 0 20 19.956"><defs><style>.a{fill:#5e09d5}</style></defs><path class="a" d="M19.708 8.225L10.57.191a.893.893 0 00-1.105 0L.284 8.182A.862.862 0 00.2 9.372a.862.862 0 001.19.085l.553-.468v10.117a.853.853 0 00.85.85h14.45a.875.875 0 00.85-.808V8.99l.553.468a.87.87 0 001.19-.043.913.913 0 00-.128-1.19zm-3.315 10.073H3.641V7.502l6.376-5.568 6.376 5.568z"/><path class="a" d="M12.27 10.18H7.722a.853.853 0 00-.85.85v4.548a.853.853 0 00.85.85h4.59a.793.793 0 00.808-.85V11.03a.853.853 0 00-.85-.85zm-.808 4.59h-2.89v-2.89h2.89z"/></svg>