<svg xmlns="http://www.w3.org/2000/svg" width="15.997" height="16" viewBox="0 0 15.997 16"><g fill="#fff"><path data-name="Path 1305" d="M15.956 4.7a5.847 5.847 0 00-.372-1.941A4.1 4.1 0 0013.243.422 5.862 5.862 0 0011.302.05C10.446.009 10.174 0 8.002 0s-2.445.009-3.3.047a5.848 5.848 0 00-1.939.372 3.9 3.9 0 00-1.419.925A3.939 3.939 0 00.422 2.76 5.862 5.862 0 00.05 4.7C.009 5.557.002 5.829.002 8s.009 2.444.047 3.3a5.847 5.847 0 00.372 1.941 4.1 4.1 0 002.341 2.341 5.863 5.863 0 001.941.372c.853.038 1.125.047 3.3.047s2.444-.009 3.3-.047a5.845 5.845 0 001.941-.372 4.093 4.093 0 002.341-2.341 5.866 5.866 0 00.372-1.941c.037-.853.047-1.125.047-3.3s-.01-2.443-.048-3.3zm-1.441 6.533a4.385 4.385 0 01-.275 1.485 2.654 2.654 0 01-1.519 1.519 4.4 4.4 0 01-1.485.275c-.844.038-1.1.047-3.232.047s-2.391-.009-3.232-.047a4.384 4.384 0 01-1.485-.275 2.462 2.462 0 01-.919-.6 2.488 2.488 0 01-.6-.919 4.4 4.4 0 01-.266-1.478c-.038-.844-.047-1.1-.047-3.232s.009-2.391.047-3.232a4.382 4.382 0 01.27-1.485 2.432 2.432 0 01.6-.919 2.483 2.483 0 01.919-.6A4.4 4.4 0 014.776 1.5c.844-.038 1.1-.047 3.232-.047s2.391.009 3.232.047a4.385 4.385 0 011.485.275 2.46 2.46 0 01.919.6 2.487 2.487 0 01.6.919 4.4 4.4 0 01.275 1.485c.038.844.047 1.1.047 3.232s-.013 2.382-.051 3.226z"/><path data-name="Path 1306" d="M8.001 3.891a4.11 4.11 0 104.11 4.11 4.111 4.111 0 00-4.11-4.11zm0 6.776a2.666 2.666 0 112.666-2.666 2.667 2.667 0 01-2.666 2.666z"/><path data-name="Path 1307" d="M13.234 3.729a.96.96 0 11-.96-.96.96.96 0 01.96.96z"/></g></svg>