<svg xmlns="http://www.w3.org/2000/svg" width="14" height="14" viewBox="0 0 14 14"><path d="M7 0a7 7 0 107 7 7 7 0 00-7-7zm5.881 6.453h-2.247a10.286 10.286 0 00-1.295-4.879 5.91 5.91 0 013.542 4.879zM7 12.906c-.6 0-1.215-.576-1.7-1.58a9.87 9.87 0 01-.842-3.78h5.081a9.866 9.866 0 01-.842 3.78C8.215 12.33 7.6 12.906 7 12.906zM4.461 6.453A9.87 9.87 0 015.3 2.674c.482-1 1.1-1.58 1.7-1.58s1.215.576 1.7 1.58a9.871 9.871 0 01.842 3.78zm.2-4.879a10.286 10.286 0 00-1.295 4.879H1.119a5.911 5.911 0 013.542-4.879zM1.119 7.547h2.247a10.286 10.286 0 001.295 4.879 5.909 5.909 0 01-3.542-4.879zm8.22 4.879a10.286 10.286 0 001.295-4.879h2.248a5.911 5.911 0 01-3.543 4.879z" fill="#9e9da6"/></svg>