<svg xmlns="http://www.w3.org/2000/svg" width="20" height="20" viewBox="0 0 20 20"><path d="M19.219 13.828h-3.906V3.125A3.129 3.129 0 0012.188 0H3.125A3.129 3.129 0 000 3.125v.781a.781.781 0 00.781.781h1.563v12.188A3.129 3.129 0 005.469 20h11.406A3.129 3.129 0 0020 16.875v-2.266a.781.781 0 00-.781-.781zM1.563 3.125a1.564 1.564 0 011.562-1.562h6.357a3.106 3.106 0 00-.419 1.563zm3.906 15.313a1.564 1.564 0 01-1.562-1.562V4.688h5.937a.781.781 0 00.781-.781v-.782a1.563 1.563 0 013.125 0v13.75a3.1 3.1 0 00.42 1.563zm12.969-1.562a1.563 1.563 0 01-3.125 0v-1.485h3.125zm-6.25-9.4a.781.781 0 01-.781.781H6.25a.781.781 0 110-1.562h5.156a.781.781 0 01.782.779zm0 3.568a.781.781 0 01-.781.781H6.25a.781.781 0 110-1.562h5.156a.781.781 0 01.782.779zm-2.579 3.565a.781.781 0 01-.781.781H6.25a.781.781 0 010-1.562h2.578a.781.781 0 01.781.781z" fill="#5e09d5"/></svg>