<svg xmlns="http://www.w3.org/2000/svg" width="17" height="13.571" viewBox="0 0 17 13.571"><defs><style>.a{fill:#00d6c1;stroke:transparent}</style></defs><path class="a" d="M15.071 13.072a1.367 1.367 0 00.936-.353l-4.533-4.533-.314.226q-.509.375-.826.585a5.09 5.09 0 01-.844.429 2.572 2.572 0 01-.982.219H8.49a2.571 2.571 0 01-.982-.219 5.074 5.074 0 01-.844-.429q-.317-.21-.826-.585l-.313-.227-4.534 4.534a1.368 1.368 0 00.936.353zM1.4 5.331a4.734 4.734 0 01-.9-.777v6.9l4-4q-1.2-.836-3.1-2.123zm14.207 0q-1.824 1.235-3.1 2.126l3.994 3.994v-6.9a4.928 4.928 0 01-.894.78z"/><path class="a" d="M15.071.5H1.928A1.275 1.275 0 00.87.964a1.8 1.8 0 00-.371 1.161 2.086 2.086 0 00.495 1.219 4.43 4.43 0 001.045 1.031q.3.214 1.83 1.272c.55.381 1.027.713 1.438 1l.9.63.133.095.246.177q.29.21.482.339t.464.29a2.709 2.709 0 00.513.241 1.421 1.421 0 00.446.08h.018a1.421 1.421 0 00.446-.08 2.7 2.7 0 00.513-.241q.272-.161.464-.29t.482-.339l.246-.177.134-.1.9-.628 3.275-2.274a4.247 4.247 0 001.089-1.1 2.362 2.362 0 00.437-1.348A1.44 1.44 0 0015.066.493z"/></svg>