<svg xmlns="http://www.w3.org/2000/svg" width="19.964" height="20" viewBox="0 0 19.964 20"><defs><style>.a{fill:#5e09d5}</style></defs><path class="a" d="M19.964 2.031V11.8a.311.311 0 00-.029.072 2.378 2.378 0 01-2.464 1.994c-2.514-.02-5.029 0-7.544 0h-7.5A2.343 2.343 0 01.01 11.551q-.011-4.619 0-9.238A2.263 2.263 0 01.923.495a2.864 2.864 0 011.11-.487h15.906a1.252 1.252 0 00.125.04 2.252 2.252 0 011.575 1.128 6.1 6.1 0 01.325.855zm-9.982-.469H2.458a.8.8 0 00-.9.9v8.925a.8.8 0 00.9.9h15.047a.8.8 0 00.9-.906V2.456a.8.8 0 00-.9-.9zM12.751 20c-.191-.057-.389-.1-.572-.175a2.226 2.226 0 01-1.23-1.189.25.25 0 00-.275-.173q-4.123.007-8.245 0a.79.79 0 01-.879-.656.765.765 0 01.7-.9c.227-.013.455-.007.682-.007h7.719a.283.283 0 00.305-.187 2.3 2.3 0 014.2.018.242.242 0 00.258.17c.76-.006 1.52-.009 2.28 0a.749.749 0 01.725.666.76.76 0 01-.5.833 1.223 1.223 0 01-.382.056c-.715.006-1.429 0-2.144 0-.092 0-.167 0-.217.109a2.268 2.268 0 01-1.792 1.4.187.187 0 00-.05.027zm1.052-2.313a.754.754 0 10-.762.75.764.764 0 00.762-.75z"/><path class="a" d="M6.913 6.934V4.747a.79.79 0 011.15-.806q2.982 1.109 5.961 2.225a.774.774 0 01.56.938.8.8 0 01-.566.588q-1.778.66-3.554 1.328l-2.388.891A.8.8 0 016.913 9.1V6.934zm1.57 1.157l3.116-1.163-3.116-1.164z"/></svg>