<svg xmlns="http://www.w3.org/2000/svg" width="15" height="12" viewBox="0 0 10 9.716"><path d="M1.906 8.715a4.8 4.8 0 002.944 1 4.945 4.945 0 00.649-.043 4.861 4.861 0 004.151-4 .247.247 0 00-.2-.285l-.65-.11a.247.247 0 00-.285.2A3.708 3.708 0 015.349 8.53a3.777 3.777 0 01-.5.033 3.705 3.705 0 112.262-6.649 3.725 3.725 0 01.581.552l-1.217-.215a.247.247 0 00-.286.2l-.115.649a.247.247 0 00.2.286l2.919.515a.247.247 0 00.286-.2L10 .782a.247.247 0 00-.2-.286L9.151.381a.247.247 0 00-.286.2l-.221 1.23a4.881 4.881 0 00-.832-.812A4.863 4.863 0 001 1.903a4.859 4.859 0 00.9 6.811z" fill="#fff"/></svg>