<svg xmlns="http://www.w3.org/2000/svg" width="17.076" height="17.064" viewBox="0 0 17.076 17.064"><defs><style>.a{fill:#00d6c1;stroke:transparent}</style></defs><path class="a" d="M12.663 11.149a1.121 1.121 0 00-1.695 0c-.4.393-.792.786-1.182 1.185a.234.234 0 01-.326.06c-.256-.14-.529-.253-.776-.406a12.291 12.291 0 01-2.963-2.7 7.02 7.02 0 01-1.062-1.7.244.244 0 01.06-.313c.4-.383.782-.776 1.172-1.169a1.125 1.125 0 000-1.735c-.31-.313-.619-.619-.929-.932s-.636-.643-.959-.959a1.128 1.128 0 00-1.695 0c-.4.393-.782.8-1.189 1.182a1.929 1.929 0 00-.606 1.3 5.516 5.516 0 00.424 2.381 14.425 14.425 0 002.556 4.265 15.844 15.844 0 005.251 4.105 7.589 7.589 0 002.907.846 2.13 2.13 0 001.828-.7c.34-.38.722-.726 1.082-1.089a1.133 1.133 0 00.007-1.725q-.95-.949-1.905-1.896zm-.636-2.655l1.229-.21A5.515 5.515 0 008.591 3.76l-.173 1.235a4.262 4.262 0 013.609 3.5z"/><path class="a" d="M13.948 3.154A9.059 9.059 0 008.754.564l-.173 1.235a7.9 7.9 0 016.689 6.482l1.229-.21a9.125 9.125 0 00-2.551-4.917z"/></svg>