<svg xmlns="http://www.w3.org/2000/svg" width="40" height="40" viewBox="0 0 50 50"><defs><style>.a{fill:#00d6c1}</style></defs><path class="a" d="M25 0a25 25 0 1025 25A25.028 25.028 0 0025 0zm0 47.917A22.917 22.917 0 1147.917 25 22.943 22.943 0 0125 47.917z"/><path class="a" d="M25.001 30.999a4.667 4.667 0 114.667-4.667 4.672 4.672 0 01-4.667 4.667zm0-7.333a2.667 2.667 0 102.667 2.667 2.669 2.669 0 00-2.667-2.666z"/><path class="a" d="M34 35H16a3 3 0 01-3-3V22a3 3 0 013-3h3.049l1.351-2.711A2.321 2.321 0 0122.491 15h5.018a2.321 2.321 0 012.091 1.289L30.951 19H34a3 3 0 013 3v10a3 3 0 01-3 3zM16 21a1 1 0 00-1 1v10a1 1 0 001 1h18a1 1 0 001-1V22a1 1 0 00-1-1h-3.667a1 1 0 01-.895-.553l-1.632-3.263a.33.33 0 00-.3-.184h-5.015a.334.334 0 00-.3.184l-1.631 3.263a1 1 0 01-.895.553z"/></svg>