<svg xmlns="http://www.w3.org/2000/svg" width="20" height="19.219" viewBox="0 0 20 19.219"><path d="M19.219 0H16.25a.781.781 0 00-.781.781 1.676 1.676 0 01-1.6 1.553L4.3 3.374A4.63 4.63 0 000 7.813a4.627 4.627 0 004.3 4.438l.152.016L6.4 17.6a2.464 2.464 0 003.15 1.47 2.464 2.464 0 001.471-3.154L9.909 12.86l3.962.431a1.676 1.676 0 011.6 1.553.781.781 0 00.781.781h2.969a.781.781 0 00.779-.781V.781A.781.781 0 0019.219 0zM1.563 7.813a3.076 3.076 0 012.909-2.885l9.239-1V11.7l-9.239-1a3.071 3.071 0 01-2.909-2.887zM9.016 17.6a.9.9 0 01-1.152-.537l-1.678-4.61 1.991.216 1.376 3.781a.9.9 0 01-.537 1.15zm9.422-3.539h-1.514a3.187 3.187 0 00-1.651-1.961V3.524a3.187 3.187 0 001.651-1.962h1.513z" fill="#5e09d5"/></svg>