<svg xmlns="http://www.w3.org/2000/svg" width="38.112" height="36" viewBox="0 0 38.112 36"><defs><radialGradient id="b" cx=".555" cy=".101" r=".582" gradientTransform="matrix(0 -1 -.719 0 15.103 28.459)" gradientUnits="objectBoundingBox"><stop offset="0" stop-color="#486da8" stop-opacity=".4"/><stop offset="1" stop-color="#486da8" stop-opacity="0"/></radialGradient><linearGradient id="a" x1="-15.512" y1="33.744" x2="-15.512" y2="33.653" gradientUnits="objectBoundingBox"><stop offset="0" stop-color="#9fc7ff"/><stop offset="1" stop-color="#9bc1f5"/></linearGradient></defs><path d="M10.818 28.506l-2.224 5.291a1.588 1.588 0 102.928 1.23l2.223-5.291a1.588 1.588 0 10-2.928-1.23zm10.587-2.117l-2.223 5.291a1.588 1.588 0 102.928 1.23l2.223-5.291a1.588 1.588 0 00-2.928-1.23z" fill="#66afeb"/><path d="M11.469 26.291A8.469 8.469 0 1114 9.737a9.53 9.53 0 0118.53 4.252 6.353 6.353 0 112.23 12.3z" transform="translate(-3 -3)" fill="url(#a)"/><path d="M13.587 9.176a9.528 9.528 0 0018.943 1.461 6.353 6.353 0 112.23 12.3H11.469A8.469 8.469 0 1114 6.385a9.488 9.488 0 00-.413 2.791z" transform="translate(-3 .352)" fill="url(#b)"/></svg>