<svg xmlns="http://www.w3.org/2000/svg" width="35.998" height="36" viewBox="0 0 35.998 36"><defs><linearGradient id="a" x1="-27.02" y1="36.37" x2="-27.02" y2="36.271" gradientUnits="objectBoundingBox"><stop offset="0" stop-color="#ffc227"/><stop offset="1" stop-color="#ffb300"/></linearGradient></defs><g transform="translate(-1.558 -1.559)"><circle cx="8.622" cy="8.622" r="8.622" transform="translate(10.942 10.941)" fill="url(#a)"/><path d="M27.667 3.359l-2.026 4.892a1.293 1.293 0 11-2.39-.99l2.026-4.891a1.293 1.293 0 112.39.989zm-11.805 28.5l-2.026 4.891a1.293 1.293 0 11-2.39-.99l2.026-4.892a1.293 1.293 0 112.39.99zM36.747 13.84l-4.892 2.026a1.293 1.293 0 11-.99-2.39l4.892-2.026a1.293 1.293 0 11.99 2.39zM8.249 25.645l-4.892 2.026a1.293 1.293 0 11-.99-2.39l4.892-2.026a1.293 1.293 0 11.99 2.39zm27.509 2.028l-4.892-2.026a1.293 1.293 0 11.99-2.39l4.892 2.026a1.293 1.293 0 11-.99 2.39zM7.259 15.868l-4.892-2.026a1.293 1.293 0 11.99-2.39l4.892 2.026a1.293 1.293 0 11-.99 2.39zm6.575-13.5L15.86 7.26a1.293 1.293 0 11-2.39.99l-2.026-4.892a1.293 1.293 0 112.39-.99zm11.805 28.5l2.026 4.892a1.293 1.293 0 11-2.39.99l-2.026-4.892a1.294 1.294 0 112.39-.992z" fill="#ffb300"/></g></svg>