<svg xmlns="http://www.w3.org/2000/svg" width="14" height="16" viewBox="0 0 12.277 14"><path d="M5.823 0h.629c.174.031.351.049.522.094a3.78 3.78 0 011.505 6.635c-.03.025-.058.052-.1.088l.127.047a6.991 6.991 0 013.676 3.054.542.542 0 01.012.595 6.94 6.94 0 01-4.823 3.376c-.267.052-.54.075-.81.111h-.848c-.2-.026-.406-.046-.608-.079a6.949 6.949 0 01-5.012-3.383.564.564 0 01.006-.63A6.992 6.992 0 013.78 6.862c.035-.013.068-.031.105-.048a.3.3 0 00-.026-.033c-.025-.02-.051-.039-.075-.06A3.775 3.775 0 015.091.154 7.122 7.122 0 015.823 0zm.316 12.9h.246c.082 0 .154-.011.231-.018A5.863 5.863 0 0011 10.356a.185.185 0 000-.26 5.931 5.931 0 00-9.733 0 .18.18 0 000 .249A5.886 5.886 0 006.139 12.9zM3.458 3.775a2.679 2.679 0 102.67-2.684 2.683 2.683 0 00-2.669 2.687z" fill="#9e9da6"/></svg>