<svg xmlns="http://www.w3.org/2000/svg" width="20" height="12" viewBox="0 0 18 10.5"><path d="M14.937 6.021c-.291-.368-.208-.531 0-.86 0 0 2.406-3.323 2.654-4.449.123-.41 0-.712-.595-.712h-1.967a.845.845 0 00-.856.548 16.1 16.1 0 01-2.42 3.953c-.458.449-.669.593-.919.593-.123 0-.314-.144-.314-.554V.711c0-.492-.14-.712-.555-.712H6.871a.471.471 0 00-.5.443c0 .467.709.574.782 1.886v2.848c0 .624-.113.739-.365.739-.669 0-2.293-2.408-3.255-5.165-.194-.535-.384-.751-.889-.751H.675C.113-.001 0 .258 0 .547c0 .511.669 3.055 3.111 6.415a7.7 7.7 0 006 3.536c1.253 0 1.406-.276 1.406-.751 0-2.192-.113-2.4.515-2.4.291 0 .792.144 1.962 1.25 1.337 1.312 1.557 1.9 2.306 1.9h1.968c.561 0 .845-.276.682-.82-.37-1.144-2.899-3.498-3.013-3.656z" fill="#fff"/></svg>